<svg width="86" height="86" viewBox="0 0 86 86" fill="none" xmlns="http://www.w3.org/2000/svg">
<circle cx="43" cy="43" r="43" fill="#F13669"/>
<path d="M22.3395 33.0909V52H19.7173L10.1058 38.1321H9.9304V52H7.07741V33.0909H9.71804L19.3388 46.9773H19.5142V33.0909H22.3395ZM32.2534 52.2862C30.9238 52.2862 29.7636 51.9815 28.7725 51.3722C27.7815 50.7628 27.0121 49.9103 26.4643 48.8146C25.9165 47.719 25.6426 46.4387 25.6426 44.9737C25.6426 43.5026 25.9165 42.2161 26.4643 41.1143C27.0121 40.0125 27.7815 39.157 28.7725 38.5476C29.7636 37.9382 30.9238 37.6335 32.2534 37.6335C33.5829 37.6335 34.7432 37.9382 35.7342 38.5476C36.7252 39.157 37.4946 40.0125 38.0424 41.1143C38.5903 42.2161 38.8642 43.5026 38.8642 44.9737C38.8642 46.4387 38.5903 47.719 38.0424 48.8146C37.4946 49.9103 36.7252 50.7628 35.7342 51.3722C34.7432 51.9815 33.5829 52.2862 32.2534 52.2862ZM32.2626 49.9688C33.1243 49.9688 33.8384 49.741 34.4047 49.2855C34.9709 48.83 35.3895 48.2237 35.6603 47.4666C35.9373 46.7095 36.0758 45.8755 36.0758 44.9645C36.0758 44.0597 35.9373 43.2287 35.6603 42.4716C35.3895 41.7083 34.9709 41.0959 34.4047 40.6342C33.8384 40.1726 33.1243 39.9418 32.2626 39.9418C31.3947 39.9418 30.6745 40.1726 30.1021 40.6342C29.5358 41.0959 29.1142 41.7083 28.8372 42.4716C28.5663 43.2287 28.4309 44.0597 28.4309 44.9645C28.4309 45.8755 28.5663 46.7095 28.8372 47.4666C29.1142 48.2237 29.5358 48.83 30.1021 49.2855C30.6745 49.741 31.3947 49.9688 32.2626 49.9688ZM48.5657 37.8182V40.0341H40.8192V37.8182H48.5657ZM42.8967 34.4205H45.6573V47.8359C45.6573 48.3714 45.7373 48.7746 45.8974 49.0455C46.0574 49.3101 46.2636 49.4917 46.516 49.5902C46.7745 49.6825 47.0546 49.7287 47.3562 49.7287C47.5778 49.7287 47.7717 49.7133 47.9379 49.6825C48.104 49.6518 48.2333 49.6271 48.3256 49.6087L48.8242 51.8892C48.6642 51.9508 48.4364 52.0123 48.141 52.0739C47.8455 52.1416 47.4762 52.1785 47.033 52.1847C46.3067 52.197 45.6296 52.0677 45.0018 51.7969C44.3739 51.526 43.8661 51.1075 43.4783 50.5412C43.0906 49.9749 42.8967 49.264 42.8967 48.4084V34.4205ZM57.5794 52.2862C56.1821 52.2862 54.9788 51.9877 53.9693 51.3906C52.966 50.7874 52.1904 49.9411 51.6426 48.8516C51.1009 47.7559 50.8301 46.4725 50.8301 45.0014C50.8301 43.5488 51.1009 42.2685 51.6426 41.1605C52.1904 40.0526 52.9537 39.1877 53.9324 38.5661C54.9172 37.9444 56.0682 37.6335 57.3855 37.6335C58.1857 37.6335 58.9612 37.7659 59.7122 38.0305C60.4631 38.2952 61.1371 38.7107 61.7342 39.277C62.3313 39.8433 62.8021 40.5788 63.1468 41.4837C63.4915 42.3823 63.6639 43.4749 63.6639 44.7614V45.7401H52.3904V43.6719H60.9586C60.9586 42.9455 60.8109 42.3023 60.5154 41.7422C60.22 41.1759 59.8045 40.7296 59.269 40.4034C58.7396 40.0772 58.118 39.9141 57.4039 39.9141C56.6284 39.9141 55.9513 40.1049 55.3727 40.4865C54.8002 40.862 54.3571 41.3544 54.0431 41.9638C53.7354 42.567 53.5815 43.2225 53.5815 43.9304V45.5462C53.5815 46.4941 53.7477 47.3004 54.0801 47.9652C54.4186 48.63 54.8895 49.1378 55.4927 49.4886C56.0959 49.8333 56.8007 50.0057 57.6071 50.0057C58.1303 50.0057 58.6073 49.9318 59.0382 49.7841C59.469 49.6302 59.8414 49.4025 60.1554 49.1009C60.4693 48.7992 60.7093 48.4268 60.8755 47.9837L63.4885 48.4545C63.2792 49.224 62.9037 49.898 62.362 50.4766C61.8265 51.049 61.1525 51.4953 60.34 51.8153C59.5337 52.1293 58.6135 52.2862 57.5794 52.2862ZM77.354 41.2805L74.8519 41.7237C74.7473 41.4036 74.5811 41.099 74.3533 40.8097C74.1317 40.5204 73.8301 40.2834 73.4485 40.0987C73.0669 39.9141 72.5898 39.8217 72.0174 39.8217C71.2357 39.8217 70.5832 39.9972 70.06 40.348C69.5368 40.6927 69.2752 41.139 69.2752 41.6868C69.2752 42.1607 69.4506 42.5424 69.8015 42.8317C70.1523 43.121 70.7186 43.358 71.5004 43.5426L73.7532 44.0597C75.0581 44.3613 76.0307 44.826 76.6708 45.4538C77.311 46.0817 77.631 46.8973 77.631 47.9006C77.631 48.75 77.3848 49.5071 76.8924 50.1719C76.4061 50.8305 75.726 51.3475 74.8519 51.723C73.984 52.0985 72.9776 52.2862 71.8327 52.2862C70.2447 52.2862 68.949 51.9477 67.9457 51.2706C66.9424 50.5874 66.3268 49.6179 66.0991 48.3622L68.7674 47.956C68.9336 48.6515 69.2752 49.1778 69.7923 49.5348C70.3093 49.8857 70.9833 50.0611 71.8143 50.0611C72.7191 50.0611 73.4424 49.8733 73.984 49.4979C74.5257 49.1162 74.7965 48.6515 74.7965 48.1037C74.7965 47.6605 74.6303 47.2881 74.2979 46.9865C73.9717 46.6849 73.4701 46.4571 72.793 46.3033L70.3924 45.777C69.069 45.4754 68.0903 44.9953 67.4563 44.3366C66.8285 43.678 66.5146 42.844 66.5146 41.8345C66.5146 40.9974 66.7485 40.2649 67.2163 39.6371C67.6841 39.0092 68.3304 38.5199 69.1552 38.169C69.98 37.812 70.9248 37.6335 71.9897 37.6335C73.5224 37.6335 74.7288 37.9659 75.609 38.6307C76.4892 39.2893 77.0709 40.1726 77.354 41.2805Z" fill="white"/>
</svg>
